<mxfile host="app.diagrams.net" agent="Mozilla/5.0 (Macintosh; Intel Mac OS X 10_15_7) AppleWebKit/537.36 (KHTML, like Gecko) Chrome/133.0.0.0 Safari/537.36" version="26.1.0">
  <diagram name="第 1 页" id="hPecYxOVQj3KBTBvCiyc">
    <mxGraphModel dx="530" dy="350" grid="1" gridSize="10" guides="1" tooltips="1" connect="1" arrows="1" fold="1" page="1" pageScale="1" pageWidth="827" pageHeight="1169" math="0" shadow="0">
      <root>
        <mxCell id="0" />
        <mxCell id="1" parent="0" />
        <mxCell id="kYIrAJBu82xSnNJDknrq-1" style="edgeStyle=orthogonalEdgeStyle;shape=connector;rounded=0;orthogonalLoop=1;jettySize=auto;html=1;entryX=0.5;entryY=1;entryDx=0;entryDy=0;strokeColor=default;align=center;verticalAlign=middle;fontFamily=Helvetica;fontSize=11;fontColor=default;labelBackgroundColor=default;endArrow=classic;" edge="1" parent="1" source="kYIrAJBu82xSnNJDknrq-2" target="kYIrAJBu82xSnNJDknrq-11">
          <mxGeometry relative="1" as="geometry">
            <Array as="points">
              <mxPoint x="154" y="290" />
              <mxPoint x="240" y="290" />
            </Array>
          </mxGeometry>
        </mxCell>
        <mxCell id="kYIrAJBu82xSnNJDknrq-2" value="特征提取" style="rounded=0;whiteSpace=wrap;html=1;fontFamily=宋体;fontSource=https%3A%2F%2Ffonts.googleapis.com%2Fcss%3Ffamily%3D%25E5%25AE%258B%25E4%25BD%2593;" vertex="1" parent="1">
          <mxGeometry x="120" y="310" width="68" height="28" as="geometry" />
        </mxCell>
        <mxCell id="kYIrAJBu82xSnNJDknrq-3" style="edgeStyle=none;shape=connector;rounded=0;orthogonalLoop=1;jettySize=auto;html=1;entryX=0.5;entryY=1;entryDx=0;entryDy=0;strokeColor=default;align=center;verticalAlign=middle;fontFamily=宋体;fontSize=11;fontColor=default;labelBackgroundColor=default;endArrow=classic;fontSource=https%3A%2F%2Ffonts.googleapis.com%2Fcss%3Ffamily%3D%25E5%25AE%258B%25E4%25BD%2593;" edge="1" parent="1" source="kYIrAJBu82xSnNJDknrq-4" target="kYIrAJBu82xSnNJDknrq-11">
          <mxGeometry relative="1" as="geometry" />
        </mxCell>
        <mxCell id="kYIrAJBu82xSnNJDknrq-4" value="特征提取" style="rounded=0;whiteSpace=wrap;html=1;fontFamily=宋体;fontSource=https%3A%2F%2Ffonts.googleapis.com%2Fcss%3Ffamily%3D%25E5%25AE%258B%25E4%25BD%2593;" vertex="1" parent="1">
          <mxGeometry x="206" y="310" width="68" height="28" as="geometry" />
        </mxCell>
        <mxCell id="kYIrAJBu82xSnNJDknrq-5" style="edgeStyle=orthogonalEdgeStyle;shape=connector;rounded=0;orthogonalLoop=1;jettySize=auto;html=1;entryX=0.5;entryY=1;entryDx=0;entryDy=0;strokeColor=default;align=center;verticalAlign=middle;fontFamily=Helvetica;fontSize=11;fontColor=default;labelBackgroundColor=default;endArrow=classic;exitX=0.5;exitY=0;exitDx=0;exitDy=0;" edge="1" parent="1" source="kYIrAJBu82xSnNJDknrq-6" target="kYIrAJBu82xSnNJDknrq-11">
          <mxGeometry relative="1" as="geometry">
            <Array as="points">
              <mxPoint x="354" y="290" />
              <mxPoint x="240" y="290" />
            </Array>
          </mxGeometry>
        </mxCell>
        <mxCell id="kYIrAJBu82xSnNJDknrq-6" value="特征提取" style="rounded=0;whiteSpace=wrap;html=1;fontFamily=宋体;fontSource=https%3A%2F%2Ffonts.googleapis.com%2Fcss%3Ffamily%3D%25E5%25AE%258B%25E4%25BD%2593;" vertex="1" parent="1">
          <mxGeometry x="320" y="310" width="68" height="28" as="geometry" />
        </mxCell>
        <mxCell id="kYIrAJBu82xSnNJDknrq-7" value="视觉任务" style="rounded=0;whiteSpace=wrap;html=1;fontFamily=宋体;fontSource=https%3A%2F%2Ffonts.googleapis.com%2Fcss%3Ffamily%3D%25E5%25AE%258B%25E4%25BD%2593;" vertex="1" parent="1">
          <mxGeometry x="201" y="170" width="78" height="28" as="geometry" />
        </mxCell>
        <mxCell id="kYIrAJBu82xSnNJDknrq-20" style="edgeStyle=orthogonalEdgeStyle;rounded=0;orthogonalLoop=1;jettySize=auto;html=1;entryX=0.5;entryY=1;entryDx=0;entryDy=0;" edge="1" parent="1" source="kYIrAJBu82xSnNJDknrq-11" target="kYIrAJBu82xSnNJDknrq-7">
          <mxGeometry relative="1" as="geometry" />
        </mxCell>
        <mxCell id="kYIrAJBu82xSnNJDknrq-11" value="特征级融合" style="rounded=0;whiteSpace=wrap;html=1;fontFamily=宋体;fontSource=https%3A%2F%2Ffonts.googleapis.com%2Fcss%3Ffamily%3D%25E5%25AE%258B%25E4%25BD%2593;" vertex="1" parent="1">
          <mxGeometry x="200" y="230" width="80" height="30" as="geometry" />
        </mxCell>
        <mxCell id="kYIrAJBu82xSnNJDknrq-12" value="" style="endArrow=none;dashed=1;html=1;dashPattern=1 3;strokeWidth=2;rounded=0;strokeColor=default;align=center;verticalAlign=middle;fontFamily=宋体;fontSize=11;fontColor=default;labelBackgroundColor=default;entryX=0;entryY=0.5;entryDx=0;entryDy=0;exitX=1;exitY=0.5;exitDx=0;exitDy=0;fontSource=https%3A%2F%2Ffonts.googleapis.com%2Fcss%3Ffamily%3D%25E5%25AE%258B%25E4%25BD%2593;" edge="1" parent="1">
          <mxGeometry width="50" height="50" relative="1" as="geometry">
            <mxPoint x="278" y="383.75" as="sourcePoint" />
            <mxPoint x="318" y="383.75" as="targetPoint" />
          </mxGeometry>
        </mxCell>
        <mxCell id="kYIrAJBu82xSnNJDknrq-17" style="edgeStyle=orthogonalEdgeStyle;rounded=0;orthogonalLoop=1;jettySize=auto;html=1;entryX=0.5;entryY=1;entryDx=0;entryDy=0;" edge="1" parent="1" source="kYIrAJBu82xSnNJDknrq-14" target="kYIrAJBu82xSnNJDknrq-2">
          <mxGeometry relative="1" as="geometry" />
        </mxCell>
        <mxCell id="kYIrAJBu82xSnNJDknrq-14" value="模态&lt;font face=&quot;Times New Roman&quot;&gt;1&lt;/font&gt;" style="rounded=0;whiteSpace=wrap;html=1;fontFamily=宋体;fontSource=https%3A%2F%2Ffonts.googleapis.com%2Fcss%3Ffamily%3D%25E5%25AE%258B%25E4%25BD%2593;" vertex="1" parent="1">
          <mxGeometry x="120" y="370" width="68" height="28" as="geometry" />
        </mxCell>
        <mxCell id="kYIrAJBu82xSnNJDknrq-18" style="edgeStyle=orthogonalEdgeStyle;rounded=0;orthogonalLoop=1;jettySize=auto;html=1;entryX=0.5;entryY=1;entryDx=0;entryDy=0;" edge="1" parent="1" source="kYIrAJBu82xSnNJDknrq-15" target="kYIrAJBu82xSnNJDknrq-4">
          <mxGeometry relative="1" as="geometry" />
        </mxCell>
        <mxCell id="kYIrAJBu82xSnNJDknrq-15" value="模态&lt;font face=&quot;Times New Roman&quot;&gt;2&lt;/font&gt;" style="rounded=0;whiteSpace=wrap;html=1;fontFamily=宋体;fontSource=https%3A%2F%2Ffonts.googleapis.com%2Fcss%3Ffamily%3D%25E5%25AE%258B%25E4%25BD%2593;" vertex="1" parent="1">
          <mxGeometry x="206" y="370" width="68" height="28" as="geometry" />
        </mxCell>
        <mxCell id="kYIrAJBu82xSnNJDknrq-19" style="edgeStyle=orthogonalEdgeStyle;rounded=0;orthogonalLoop=1;jettySize=auto;html=1;entryX=0.5;entryY=1;entryDx=0;entryDy=0;" edge="1" parent="1" source="kYIrAJBu82xSnNJDknrq-16" target="kYIrAJBu82xSnNJDknrq-6">
          <mxGeometry relative="1" as="geometry" />
        </mxCell>
        <mxCell id="kYIrAJBu82xSnNJDknrq-16" value="模态&lt;font face=&quot;Times New Roman&quot;&gt;n&lt;/font&gt;" style="rounded=0;whiteSpace=wrap;html=1;fontFamily=宋体;fontSource=https%3A%2F%2Ffonts.googleapis.com%2Fcss%3Ffamily%3D%25E5%25AE%258B%25E4%25BD%2593;" vertex="1" parent="1">
          <mxGeometry x="320" y="370" width="68" height="28" as="geometry" />
        </mxCell>
      </root>
    </mxGraphModel>
  </diagram>
</mxfile>
